<svg xmlns="http://www.w3.org/2000/svg" viewBox="0 0 958.19183 134.82857">
  <defs>
    <style>
      .cls-1 {
        fill: #c2b280;
      }

      .cls-2 {
        fill: #f7931e;
      }

      .cls-3 {
        fill: #00a99d;
      }

      .cls-4 {
        fill: #21f4df;
      }
    </style>
  </defs>
  <g id="Layer_2" data-name="Layer 2">
    <g id="Layer_1-2" data-name="Layer 1">
      <path class="cls-1" d="M477.1788,125.57031c-145.49546,10.86157-270.07312,21.42145-427-26-13.14307-3.97168-23.88459-7.55682-31-10-7.897-4.55615-20.85126-13.98547-19-20,1.62363-5.275,13.9861-5.81256,18.29787-6.00006,37.09043-1.61279,699.86784-.44489,931.70213.00006,2.8861,2.15473,6.14892,5.32581,6,9C955.20724,96.53717,810.73623,100.66949,477.1788,125.57031Z"/>
      <path class="cls-2" d="M866.1788,87.57031l-71-24"/>
      <path class="cls-3" d="M950.40664,63.57031c2.40436,1.47711,8.11005,5.376,7.77069,10-.527,7.1814-14.77679,10.93353-18.87176,12-13.4466,3.502-25.39606.76843-33.12677-1a88.00548,88.00548,0,0,1-13-4,80.89223,80.89223,0,0,1-26-16.97c0-.01.005-.01.005-.02l.005-.01Z"/>
      <path class="cls-3" d="M788.5588,63.57031h-4.36C784.52877,62.78027,785.97878,62.90027,788.5588,63.57031Z"/>
      <polygon class="cls-4" points="784.199 63.57 784.189 63.58 784.179 63.57 784.199 63.57"/>
      <g>
        <path d="M627.3222,69.57031a81.28288,81.28288,0,0,1,.44771-10.95C629.66563,41.332,636.7164,30.21372,640.082,25.58767l-.22386,2.555c-2.05594,3.07018-6.36881,10.36566-8.39462,22.08257a76.07938,76.07938,0,0,0-.7835,19.34506Z"/>
        <path d="M643.60718,27.81965c3.58539,2.05386,4.00494,8.86931,2.62583,13.523-.83383,2.81369-2.23589,5.54794-2.88841,5.383-.79616-.2013.888-4.37022-.65646-9.32169-1.61777-5.18638-5.456-7.01486-4.5952-8.79653C638.72365,27.30193,641.6857,26.71894,643.60718,27.81965Z"/>
        <path d="M643.34583,23.0496c-1.21226-3.89688-7.41149-6.82349-12.63166-5.4962-4.37141,1.11148-7.214,4.83911-6.92668,5.25575.24184.35072,2.55584-1.88073,6.56385-2.0906,1.01753-.05328,4.84795-.11784,7.34477,2.3827.07154.07164.11934.125.20984.2192,2.42008,2.51991,2.40167,4.99381,3.475,4.94129C642.52558,28.20573,644.05153,25.31812,643.34583,23.0496Z"/>
        <path d="M641.62546,25.07092c3.0802-2.72551,10.17113-2.19411,13.65133,1.84608,4.05713,4.70993,2.08674,12.1117,1.32824,12.19371-.567.06131-.48617-3.9869-3.80745-7.7462-.6-.67914-3.49459-3.95547-6.36718-3.32136-.06889.01521-.143.03866-.293.0787-3.37568.90084-4.64207,3.02611-5.53275,2.425C639.65471,29.90565,639.84624,26.64525,641.62546,25.07092Z"/>
        <path d="M636.73334,25.76522c-4.02772-.92244-8.95847,3.80134-11.10131,8.15647-1.3908,2.82669-2.01492,5.67675-1.52833,5.91466.85421.41766,6.67667-6.46422,8.34371-8.20925a3.37307,3.37307,0,0,1,1.49044-.952c.02152-.00637.14762-.03538.29493-.07119,3.395-.82525,5.52427.43432,6.01842-.51988C640.77823,29.06634,639.04913,26.29559,636.73334,25.76522Z"/>
        <path d="M640.66114,24.86229c-2.664-3.14591-9.5219-3.29657-13.775-.12882-3.43927,2.5616-4.67786,6.91644-4.15431,7.2875.41816.29636,1.769-2.08419,5.51424-3.93874,4.223-2.09112,6.74306-1.16287,7.23382-.9668.08215.03282.147.06346.27876.11989,3.21178,1.37518,4.16062,3.66,5.12823,3.19262C641.91888,29.9295,642.19644,26.6753,640.66114,24.86229Z"/>
        <path d="M641.48584,24.47681c1.72472-4.48774,9.73243-7.23964,12.96348-4.66,2.81405,2.24675,2.00928,7.53679,1.63055,7.60892-.28663.05459-.26609-2.84711-2.232-3.93874-1.79537-.997-4.82809-.25128-6.72777,1.41011-.07375.06449-.12255.11262-.2237.205-2.5794,2.35657-2.72251,4.8264-3.79008,4.70393C641.96778,29.67549,640.63357,26.69442,641.48584,24.47681Z"/>
      </g>
      <g>
        <path d="M616.40133,67.57031a40.5751,40.5751,0,0,0-.44856-7.73006,41.65691,41.65691,0,0,0-12.33537-23.319l.22428,1.80368a34.52334,34.52334,0,0,1,8.41048,15.589,38.066,38.066,0,0,1,.785,13.65644Z"/>
        <path d="M601.26246,37.80958c-3.06238,2.01543-3.42073,8.70332-2.24279,13.26993.7122,2.761,1.90974,5.44411,2.46707,5.28221.68-.19753-.75849-4.28843.5607-9.14724,1.38179-5.08932,4.6601-6.88358,3.92489-8.6319C605.43363,37.30155,602.90365,36.72947,601.26246,37.80958Z"/>
        <path d="M601.48569,33.1288c1.03543-3.82395,6.33036-6.69579,10.78906-5.39334,3.73375,1.09068,6.16164,4.74855,5.91627,5.15739-.20656.34416-2.183-1.84554-5.60637-2.05148a7.81367,7.81367,0,0,0-6.27337,2.33811c-.0611.07031-.10193.12263-.17923.2151-2.06706,2.47275-2.05133,4.90036-2.96806,4.84882C602.18629,38.18844,600.88294,35.35486,601.48569,33.1288Z"/>
        <path d="M602.95511,35.11229c-2.63089-2.6745-8.68745-2.153-11.66,1.81153-3.46531,4.62179-1.78234,11.885-1.13449,11.96551.48431.06016.41526-3.91229,3.25205-7.60123.51249-.66643,2.98484-3.88145,5.4384-3.2592.05884.01492.12211.03793.25027.07723,2.88327.884,3.96493,2.96948,4.72568,2.37957C604.63838,39.85654,604.47479,36.65716,602.95511,35.11229Z"/>
        <path d="M607.1336,35.7936c3.44019-.90518,7.65169,3.7302,9.48194,8.00382,1.18793,2.77379,1.721,5.57051,1.3054,5.804-.7296.40984-5.70274-6.34324-7.1266-8.05562a2.88961,2.88961,0,0,0-1.273-.93419c-.01838-.00625-.12609-.03472-.25191-.06985-2.89972-.80981-4.71843.42619-5.1405-.51016C603.67875,39.03294,605.15562,36.314,607.1336,35.7936Z"/>
        <path d="M604.77876,34.90757c2.27543-3.087,7.13293-3.23488,10.76561-.12641,2.93757,2.51366,3.99549,6.787,3.54831,7.15111-.35716.29082-1.511-2.04518-4.70987-3.865-3.60694-2.052-5.75943-1.1411-6.17861-.9487-.07017.03221-.12554.06228-.23809.11764-2.74328,1.34945-3.5537,3.59148-4.38017,3.13287C602.70449,39.87994,603.46742,36.68664,604.77876,34.90757Z"/>
        <path d="M603.07436,34.5293c-1.47313-4.40375-8.31274-7.10415-11.07247-4.57275-2.40356,2.2047-.71619,7.39574-.3927,7.46652.24482.05357-.77273-2.79383.90638-3.865,1.53348-.9783,4.12381-.24658,5.74638,1.38372.063.06329.10467.11051.19107.2012,2.20313,2.31247,2.32537,4.73607,3.23721,4.6159C602.66273,39.63069,603.80231,36.70541,603.07436,34.5293Z"/>
      </g>
      <g>
        <path d="M305.252,67.57031a111.59294,111.59294,0,0,1,.54325-14.136c2.30028-22.31838,10.85572-36.67163,14.93958-42.64366l-.27162,3.29841c-2.49469,3.96347-7.72795,13.38162-10.18608,28.50764a104.421,104.421,0,0,0-.9507,24.97363Z"/>
        <path d="M325.01231,13.672c4.35053,2.65146,4.85961,11.4499,3.18619,17.45763-1.01177,3.63235-2.713,7.16215-3.50481,6.94916-.96606-.25988,1.07754-5.64177-.79655-12.03391-1.963-6.69539-6.62031-9.05588-5.57584-11.35593C319.0866,13.00366,322.68077,12.251,325.01231,13.672Z"/>
        <path d="M324.69518,7.51409c-1.471-5.0307-8.99314-8.80883-15.32732-7.09536-5.3043,1.43487-8.75345,6.24709-8.40487,6.785.29345.45277,3.10127-2.42795,7.96461-2.69888,1.23467-.06878,5.88253-.15212,8.91218,3.076.0868.09249.1448.16132.25462.283,2.93654,3.25309,2.91419,6.44679,4.21652,6.379C323.69988,14.17043,325.55148,10.44264,324.69518,7.51409Z"/>
        <path d="M322.60767,10.12352c3.73754-3.51851,12.3417-2.83249,16.5646,2.38321,4.92294,6.08032,2.53206,15.63568,1.6117,15.74155-.688.07915-.58993-5.14692-4.62-10-.728-.87674-4.24036-5.10634-7.726-4.28773-.08359.01963-.17348.04991-.35555.1016-4.09607,1.16294-5.63271,3.90658-6.71347,3.1305C320.21635,16.365,320.44876,12.15592,322.60767,10.12352Z"/>
        <path d="M316.67156,11.01984C311.7843,9.829,305.8013,15.9272,303.20117,21.54948c-1.68761,3.64914-2.44492,7.32844-1.85449,7.63558,1.0365.53917,8.10151-8.345,10.1243-10.59779a4.08586,4.08586,0,0,1,1.80851-1.229c.02611-.00823.17913-.04568.35787-.0919,4.11945-1.06537,6.70318.56069,7.30279-.67115C321.57964,15.28144,319.48154,11.70452,316.67156,11.01984Z"/>
        <path d="M321.43756,9.85419c-3.23256-4.06123-11.55392-4.25573-16.71465-.1663-4.17321,3.30692-5.67612,8.92883-5.04085,9.40785.50739.38259,2.14654-2.6906,6.691-5.08475,5.12415-2.69954,8.18206-1.5012,8.77755-1.24809.09969.04237.17835.08193.33824.15477,3.8972,1.7753,5.04852,4.72486,6.22264,4.12153C322.96371,16.39574,323.30051,12.19471,321.43756,9.85419Z"/>
        <path d="M322.43826,9.35656c2.09279-5.79348,11.80938-9.34607,15.72995-6.01581,3.41458,2.90045,2.43807,9.72967,1.97852,9.82279-.3478.07047-.32287-3.6755-2.70827-5.08475-2.17852-1.287-5.85844-.32439-8.16352,1.82039-.08948.08326-.14869.14539-.27143.26469-3.12986,3.04223-3.30351,6.23067-4.5989,6.07257C323.023,16.06783,321.40411,12.2194,322.43826,9.35656Z"/>
      </g>
      <g>
        <path d="M348.67911,66.57031a40.5751,40.5751,0,0,0-.44856-7.73006,41.65691,41.65691,0,0,0-12.33537-23.319l.22428,1.80368a34.52334,34.52334,0,0,1,8.41048,15.589,38.06576,38.06576,0,0,1,.785,13.65644Z"/>
        <path d="M333.54024,36.80958c-3.06238,2.01543-3.42073,8.70332-2.24279,13.26993.7122,2.761,1.90974,5.44411,2.46707,5.28221.68-.19753-.75849-4.28843.5607-9.14724,1.38179-5.08932,4.6601-6.88358,3.92489-8.6319C337.71141,36.30155,335.18143,35.72947,333.54024,36.80958Z"/>
        <path d="M333.76348,32.1288c1.03542-3.82395,6.33036-6.69579,10.789-5.39334,3.73375,1.09068,6.16164,4.74855,5.91627,5.15739-.20656.34416-2.183-1.84554-5.60637-2.05148a7.81367,7.81367,0,0,0-6.27337,2.33811c-.0611.07031-.10193.12263-.17923.2151-2.06706,2.47275-2.05133,4.90036-2.96805,4.84882C334.46407,37.18844,333.16072,34.35486,333.76348,32.1288Z"/>
        <path d="M335.23289,34.11229c-2.63089-2.6745-8.68745-2.153-11.66,1.81153-3.46531,4.62179-1.78234,11.885-1.13449,11.96551.48431.06016.41526-3.91229,3.252-7.60123.51249-.66643,2.98484-3.88145,5.4384-3.2592.05884.01492.12211.03793.25027.07723,2.88327.884,3.96493,2.96948,4.72568,2.37957C336.91616,38.85654,336.75257,35.65716,335.23289,34.11229Z"/>
        <path d="M339.41138,34.7936c3.44019-.90518,7.65169,3.7302,9.48195,8.00382,1.18792,2.77379,1.721,5.57051,1.30539,5.804-.7296.40984-5.70274-6.34324-7.1266-8.05562a2.88961,2.88961,0,0,0-1.273-.93419c-.01838-.00625-.12609-.03472-.25191-.06985-2.89972-.80981-4.71843.42619-5.1405-.51016C335.95653,38.03294,337.4334,35.314,339.41138,34.7936Z"/>
        <path d="M337.05654,33.90757c2.27543-3.087,7.13293-3.23488,10.76561-.12641,2.93757,2.51366,3.99549,6.787,3.54831,7.15111-.35716.29082-1.511-2.04518-4.70987-3.865-3.60694-2.052-5.75943-1.1411-6.17861-.9487-.07017.03221-.12554.06228-.23809.11764-2.74328,1.34945-3.5537,3.59148-4.38017,3.13287C334.98227,38.87994,335.7452,35.68664,337.05654,33.90757Z"/>
        <path d="M335.35214,33.5293c-1.47313-4.40375-8.31274-7.10415-11.07247-4.57275-2.40356,2.2047-.71619,7.39574-.3927,7.46652.24482.05357-.77273-2.79383.90638-3.865,1.53348-.9783,4.12381-.24658,5.74638,1.38372.063.06329.10467.11051.19107.2012,2.20313,2.31247,2.32537,4.73607,3.23721,4.6159C334.94051,38.63069,336.08009,35.70541,335.35214,33.5293Z"/>
      </g>
    </g>
  </g>
</svg>
