<svg xmlns="http://www.w3.org/2000/svg" viewBox="0 0 590.88298 143">
  <defs>
    <style>
      .cls-1 {
        fill: #f1f1f1;
      }
    </style>
  </defs>
  <g id="Layer_2" data-name="Layer 2">
    <g id="Layer_1-2" data-name="Layer 1">
      <g>
        <ellipse class="cls-1" cx="37.59747" cy="132.30693" rx="37.59747" ry="8.31683"/>
        <ellipse class="cls-1" cx="59.98375" cy="116.14851" rx="27.83935" ry="21.14851"/>
        <ellipse class="cls-1" cx="35.01444" cy="123.0396" rx="13.77617" ry="11.40594"/>
        <ellipse class="cls-1" cx="111.0704" cy="135.87129" rx="47.9296" ry="7.12871"/>
        <ellipse class="cls-1" cx="122.55054" cy="133.9703" rx="4.87906" ry="1.90099"/>
        <ellipse class="cls-1" cx="67.44585" cy="136.82178" rx="22.09928" ry="6.17822"/>
        <ellipse class="cls-1" cx="97.86823" cy="124.70297" rx="15.7852" ry="9.74257"/>
        <ellipse class="cls-1" cx="88.68412" cy="114.72277" rx="7.7491" ry="5.46535"/>
        <ellipse class="cls-1" cx="124.27256" cy="129.93069" rx="24.96931" ry="10.21782"/>
        <ellipse class="cls-1" cx="81.50903" cy="128.0297" rx="8.0361" ry="5.94059"/>
      </g>
      <g>
        <ellipse class="cls-1" cx="482.54995" cy="100.31946" rx="33.54995" ry="10.326"/>
        <ellipse class="cls-1" cx="502.52625" cy="80.25753" rx="24.84233" ry="26.25753"/>
        <ellipse class="cls-1" cx="480.24499" cy="88.81336" rx="12.29311" ry="14.16137"/>
        <ellipse class="cls-1" cx="548.1132" cy="104.74489" rx="42.76978" ry="8.85085"/>
        <ellipse class="cls-1" cx="558.35746" cy="102.38466" rx="4.35381" ry="2.36023"/>
        <ellipse class="cls-1" cx="509.18502" cy="105.92501" rx="19.7202" ry="7.67074"/>
        <ellipse class="cls-1" cx="536.3323" cy="90.87855" rx="14.08586" ry="12.09617"/>
        <ellipse class="cls-1" cx="528.1369" cy="78.48736" rx="6.91487" ry="6.78565"/>
        <ellipse class="cls-1" cx="559.8941" cy="97.36918" rx="22.28126" ry="12.68622"/>
        <ellipse class="cls-1" cx="521.73423" cy="95.00895" rx="7.17098" ry="7.37571"/>
      </g>
      <g>
        <ellipse class="cls-1" cx="197.98316" cy="33.2155" rx="25.98316" ry="8.07352"/>
        <ellipse class="cls-1" cx="236.45405" cy="20.52981" rx="19.23944" ry="20.52981"/>
        <ellipse class="cls-1" cx="196.19806" cy="24.2193" rx="9.52055" ry="11.07226"/>
        <ellipse class="cls-1" cx="248.75941" cy="36.67558" rx="33.12357" ry="6.92016"/>
        <ellipse class="cls-1" cx="256.6932" cy="34.83021" rx="3.37186" ry="1.84538"/>
        <ellipse class="cls-1" cx="218.61101" cy="37.59827" rx="15.27254" ry="5.99747"/>
        <ellipse class="cls-1" cx="211.63555" cy="21.834" rx="10.90896" ry="9.45755"/>
        <ellipse class="cls-1" cx="233.28852" cy="16.14578" rx="5.35531" ry="5.30546"/>
        <ellipse class="cls-1" cx="257.88327" cy="30.90878" rx="17.25599" ry="9.9189"/>
        <ellipse class="cls-1" cx="228.3299" cy="29.06341" rx="5.55365" ry="5.7668"/>
      </g>
    </g>
  </g>
</svg>
