<svg xmlns="http://www.w3.org/2000/svg" viewBox="0 0 969.21693 888.53217">
  <defs>
    <style>
      .cls-1 {
        fill: #c1272d;
      }
    </style>
  </defs>
  <g id="Layer_2" data-name="Layer 2">
    <g id="Layer_1-2" data-name="Layer 1">
      <g>
        <path class="cls-1" d="M25.40336,156.00606c10.987-26.119,26.9976-64.18082,65-98,57.88832-51.5161,127.06409-57.82057,158-58a243.34333,243.34333,0,0,1,105,23,238.61106,238.61106,0,0,1,86,70c12.59381,16.50393,28.28345,37.06489,36,69,11.15406,46.16113-1.03827,88.41015-12,112-1.63049,3.50888-3.11181,6.34243-4,8-8.69049,16.21841-24.56485,45.84347-55,57-6.02749,2.20947-21.07577,7.72567-38,3-4.02121-1.12284-5.875-2.18909-36-25-13.6409-10.329-20.47213-15.62366-21-22-.69867-8.43955,6.30927-16.012,10-20,2.27677-2.46015,2.682-2.27509,20-16,3.252-2.57734,3.395-2.70847,4-3,9.75934-4.70276,26.83435,3.26824,33,15,6.36588,12.11273-5.23834,21.39645,1,31,5.17948,7.97344,17.9928,9.8912,27,8,15.57456-3.27015,23.79047-18.77289,28-27,18.21668-35.6027,12.34934-85.96344-7-125-21.94336-44.26989-58.17178-67.81418-80-82-18.33233-11.91389-32.32034-17.55286-36-19-12.55819-4.93891-43.85782-16.83562-83-12-30.93374,3.82154-52.18387,16.292-70,27a244.97586,244.97586,0,0,0-81,80c-29.60558,47.79235-34.1758,92.70928-37,124-6.5594,72.67492,12.14063,128.606,23,160,8.21469,23.74829,22.11238,62.96148,53,105,20.09293,27.34674,76.85285,96.00817,164,123,126.19028,39.08447,248.47132-30.14637,251-22,1.55237,5.001-45.50988,28.01739-97,39-24.20623,5.16308-84.94787,17.38073-159-3-83.77681-23.05719-133.7868-73.85474-156-97-52.75883-54.97266-74.36358-111.31684-88-148-12.72367-34.22785-32.47359-89.03666-29-162C3.29812,210.20125,20.8964,166.72038,25.40336,156.00606Z"/>
        <path class="cls-1" d="M404.40337,262.00606c2.92359-3.04679-13.86569-35.33448-43-46-34.04055-12.46161-66.94308,11.18072-82,22-7.35293,5.2835-52.375,38.80966-56,99-.60586,10.06-1.71,48.33865,24,83,36.48786,49.19177,102.74735,58.4234,149,48,62.12149-13.99952,97.22162-65.49811,96-67-1.18316-1.45466-36.65,43.73089-94,51-7.66766.97186-73.84494,8.301-110-39-27.77667-36.3397-19.19549-80.54029-16-97,3.89536-20.06464,10.53925-54.28644,38-68,25.02582-12.49759,58.87607-3.7356,78,6C397.54726,258.66105,403.06136,263.40461,404.40337,262.00606Z"/>
        <path class="cls-1" d="M402.40337,209.00606c-18.05761-28.2381-57.253-53.49271-98-58-101.26489-11.2016-176.56723,109.6701-181,117-16.07414,26.57971-45.92762,75.94448-32,133,11.73244,48.0628,48.12989,75.35382,81,100,23.73958,17.8,71.82056,48.0968,139,56,61.706,7.25927,109.41114-7.91736,143-19,26.49134-8.74079,48.99427-20.4939,94-44,86.9339-45.40485,100.24005-62.02088,148-73,30.90839-7.10523,62.04663-13.82993,94,2,28.18726,13.96417,53.88849,43.761,56,79,1.64612,27.47241-16.91717,49.96423-23,58-15.8612,20.95355-31.5523,26.71759-30,30,2.94782,6.23339,68.13623,2.70373,94-42,28.82312-49.81873-11.69177-107.801-14-111-46.85174-64.93265-155.05078-67.16132-222-44-27.88153,9.64569-53.11035,26.38629-96,54-46.45648,29.91009-52.75818,39.89355-86,56-23.52188,11.39691-58.04513,28.1242-105,30-11.1578.44573-65.243,1.73968-123-31-27.79147-15.75367-96.39315-54.64069-104-125-5.39445-49.89594,22.81191-88.55439,37-108,30.49643-41.79715,92.30414-91.75336,152-81,41.26953,7.43411,75.1854,42.7601,81,36C409.98464,221.00505,404.63366,212.49373,402.40337,209.00606Z"/>
        <path class="cls-1" d="M182.40336,662.00606c-2.08824,2.08367,25.43634,32.79266,31,39,28.70853,32.0299,64.23533,63.02783,149,122,85.92362,59.77844,110.01374,70.084,137,64,18.73255-4.22321,40.30384-16.66913,39-22-1.17926-4.8216-20.559-1.72651-43-4-10.61059-1.075-35.352-4.71241-81-31-59.29092-34.14423-52.73388-48.26893-125-98-41.79617-28.7627-67.40234-40.14979-96-63C191.20765,667.25166,183.42892,660.98274,182.40336,662.00606Z"/>
        <path class="cls-1" d="M522.40334,237.00606c6.72882-43.6196-10.17975-58.70582-7-92,5.79084-60.6343,71.07929-107.01834,112-125,96.46918-42.39118,228.1474-1.91422,289,79,107.79651,143.33428,19.39551,372.45349,6,372-1.46545-.04963-2.3775-2.91059-4-8-11.41748-35.81427,6.82074-71.05423,13-85,22.78064-51.41282,11.15363-106.39875,2-153-5.84637-29.764-16.59936-84.50719-62-127-68.17968-63.81287-162.23266-51.08181-185-48-21.02942,2.84655-113.839,15.40933-135,72-12.10034,32.35989,11.17243,47.17117,4,94-10.37982,67.77-70.57983,111.56524-74,109C478.654,322.94395,513.93142,291.92506,522.40334,237.00606Z"/>
        <path class="cls-1" d="M417.40337,179.00606c-19.23849-49.95888-72.62878-99.16709-140-104-70.6367-5.06717-119.92537,41.03071-137,57-53.23475,49.78854-64.49487,113.06417-70,144-6.40469,35.99084-5.47917,70.53512-2,71,4.094.547,6.04371-46.854,30-101,16.62891-37.58463,40.11393-90.6655,97-117,66.73362-30.89326,131.86457-3.1796,139,0,4.73124,2.10827,82.73505,38.00079,86,95,1.86512,32.56112-21.21508,62.31039-18,64,2.03739,1.07067,11.88419-10.57142,18-24C436.51373,228.63221,422.06548,191.11274,417.40337,179.00606Z"/>
        <path class="cls-1" d="M426.40337,721.00606c-43.75537-30.62586-112.699-12.80237-114,0-.74585,7.33923,21.319,7.31378,58,32,33.67514,22.66326,35.89557,37.36474,66,53,23.07807,11.986,43.67884,15.73309,57,18a224.61878,224.61878,0,0,0,74,0c11.16071-1.86231,93.405-16.81171,142-85,13.967-19.59839,22.22467-39.48432,20-41-3.13257-2.13422-20.13073,27.98321-57,53-24.82165,16.84216-48.62194,21.24542-67,25-32.88122,6.71752-101.16327,21.48132-145-15C440.76116,744.65962,446.25671,734.90205,426.40337,721.00606Z"/>
        <path class="cls-1" d="M519.40334,752.00606c13.45166,4.39593,33.43647,10.70123,59,8,17.38355-1.83692,31.25568-7.55793,59-19,19.62049-8.09174,29.70246-11.73621,40-19,18.66468-13.1659,38.33161-27.03888,48-51,14.96723-37.09321-1.7091-79.32386-8-79-5.54413.2854,3.70716,38.315-20,75-18.19818,28.16027-46.54052,41.1911-57,46-21.24493,9.7677-38.97888,11.86682-57,14-13.21417,1.56414-42.50323,4.78643-78-3-40.30719-8.84168-61.20614-25.86487-63-23C440.07943,704.71754,472.94164,736.82258,519.40334,752.00606Z"/>
        <path class="cls-1" d="M103.40337,481.00606c3.491-3.69709,55.41742,76.37866,156,101,102.90039,25.18865,203.548-20.67939,224-30,53.724-24.48365,53.80112-37.57374,139-77,66.18244-30.62629,108.7616-41.923,150-29,11.533,3.61413,41.04041,12.861,48,37,6.6941,23.2182-11.20044,47.28308-12,47-.6297-.223,8.849-15.72455,3-30-2.20221-5.37482-7.15478-11.98536-23-19-28.19745-12.483-55.28857-10.48517-61-10-52.26013,4.43957-92.45807,25.135-96,27-103.02307,54.24713-112.29449,90.35955-175,114-28.33728,10.68334-99.02044,32.12786-179,10C160.46888,589.65394,99.49745,485.14253,103.40337,481.00606Z"/>
        <path class="cls-1" d="M745.40334,602.00606c15.53247,37.52191-8.38318,76.38378-1,80,4.40747,2.15875,12.85553-11.72657,31-30,31.99945-32.22693,63.18665-46.91144,61-51-1.41064-2.63764-13.52929,5.08422-34,4-12.81634-.67878-22.319-4.46052-31-8-27.558-11.23621-41.7796-27.166-44-25C725.43185,573.92921,738.3074,584.86433,745.40334,602.00606Z"/>
        <path class="cls-1" d="M572.40334,644.96089c-12.95678-29.65082,16.00739-64.41571,27-77.6098,40.04425-48.064,116.79175-76.41053,163-48.345,18.45154,11.2069,32.6355,31.77441,28,40-8.63275,15.31866-78.63556-19.08613-94,2.37506-8.67724,12.12054,10.41693,27.61126,5,57.62494-3.62689,20.09539-17.26422,41.28485-38,51.32727C631.38406,685.84034,584.9064,673.57332,572.40334,644.96089Z"/>
        <path class="cls-1" d="M502.40337,406.00606c-1.54358-1.00736,22.60569-31.04322,47-92,15.1482-37.85236,24.34-60.82087,27-94,2.89167-36.06836-4.93329-46.8107,4-70,12.71357-33.00217,43.39868-49.75733,53-55,60.19525-32.86879,149.47644-14.03055,207,35,70.08033,59.73333,94.719,165.72253,63,218-4.25476,7.01242-18.06372,29.7716-41,32-16.46893,1.60006-39.19244-7.23441-42-24-2.94922-17.61158,17.31177-36.608,27-34,7.40705,1.994,6.393,16.013,14,18,8.55365,2.23425,20.2226-12.77781,25-21,23.458-40.373-11.30969-102.8021-16-111-3.91058-6.83512-53.43829-90.23292-145-95-35.00982-1.82276-93.53473,6.9461-114,45-9.538,17.73529-6.66339,34.123-6,49C610.13467,313.108,505.31731,407.9077,502.40337,406.00606Z"/>
        <path class="cls-1" d="M582.40334,348.00606c51.64313-67.63218,29.87384-121.79236,71-163,28.05878-28.11438,73.666-38.44817,111-29,49.00837,12.40261,89.52918,60.353,87,104-1.46832,25.33956-17.33661,47.33276-22,46-5.59918-1.60022,9.7724-35.45081-3-69-11.85418-31.13736-46.5661-58.37647-83-60-50.32226-2.24244-93.04559,44.86679-109,83-13.91668,33.26269-6.5119,57.41586-32,87-14.73437,17.10223-35.6347,30.41745-38,28C562.25161,372.80687,575.24117,357.38566,582.40334,348.00606Z"/>
        <path class="cls-1" d="M641.40334,329.00606c-.76837-.56516-1.80413-3.14066,20-43,25.46125-46.54474,31.82288-52.08033,38-56,3.39911-2.15687,25.293-15.59495,50-9,19.32679,5.15881,29.24781,19.60568,46,44,10.83252,15.77416,15.56189,24.11862,13,31-8.97973,24.12036-95.7915,12.35049-96,7-.1112-2.85438,24.42749-3.81522,47-23,5.122-4.35328,6.76886-7.016,7-10,.7038-9.08628-27.06561-27.47989-49-21-17.4635,5.15908-16.82129,21.829-48,56C666.22225,308.49244,644.95589,331.619,641.40334,329.00606Z"/>
        <path class="cls-1" d="M556.40334,681.00606c23.82166,10.521,37.665,8.81311,38,13,.44532,5.56542-23.572,14.12017-48,15-15.63995.56329-47.48858-1.44166-50-13-2.15741-9.92914,17.35913-26.79615,35-26C539.59243,670.37562,541.153,674.27064,556.40334,681.00606Z"/>
      </g>
    </g>
  </g>
</svg>
