<svg xmlns="http://www.w3.org/2000/svg" viewBox="0 0 244.6212 550.7524">
  <defs>
    <style>
      .cls-1 {
        fill: #99e9ff;
      }

      .cls-2, .cls-8 {
        fill: gray;
      }

      .cls-3 {
        fill: #ed1c24;
      }

      .cls-4 {
        fill: #4d4d4d;
      }

      .cls-5 {
        fill: #b3b3b3;
      }

      .cls-6 {
        fill: #e6e6e6;
      }

      .cls-7 {
        fill: none;
      }

      .cls-8 {
        opacity: 0.2;
      }
    </style>
  </defs>
  <g id="Layer_2" data-name="Layer 2">
    <g id="Layer_2-2" data-name="Layer 2">
      <g>
        <rect class="cls-1" x="92.7255" y="23.7937" width="56.5504" height="42.37017"/>
        <rect class="cls-2" x="85.9504" y="63.12734" width="73.1775" height="35.78526"/>
        <polygon class="cls-3" points="122.539 0 85.95 25.329 122.539 25.329 159.128 25.329 122.539 0"/>
        <rect class="cls-4" x="105.5365" y="25.3294" width="3.0539" height="37.79794"/>
        <rect class="cls-4" x="133.7692" y="25.3294" width="3.054" height="37.79794"/>
        <g>
          <rect class="cls-4" x="91.1985" y="25.3294" width="3.0539" height="37.79794"/>
          <rect class="cls-4" x="119.8734" y="25.3294" width="3.0549" height="37.79794"/>
        </g>
        <rect class="cls-4" x="147.7489" y="25.3294" width="3.0539" height="37.79794"/>
        <rect class="cls-5" x="54.05198" y="98.9126" width="136.97452" height="11.5519"/>
        <rect class="cls-6" x="57.78487" y="81.02" width="130.50063" height="3.3432"/>
        <rect class="cls-6" x="175.901" y="81.02" width="3.4302" height="17.8926"/>
        <rect class="cls-6" x="64.453" y="81.02" width="3.4288" height="17.8926"/>
        <polygon class="cls-6" points="179.331 110.465 122.539 110.465 65.748 110.465 59.921 217.516 185.158 217.516 179.331 110.465"/>
        <polygon class="cls-6" points="42.884 530.504 122.539 530.504 202.194 530.504 191.438 332.911 53.64 332.911 42.884 530.504"/>
        <polygon class="cls-3" points="59.921 217.516 53.64 332.911 191.438 332.911 185.158 217.516 59.921 217.516"/>
        <polygon class="cls-5" points="188.633 439.094 188.633 421.122 177.276 421.122 177.276 439.094 69.581 439.094 69.581 421.122 58.225 421.122 58.225 439.094 34.273 439.094 34.273 475.721 210.803 475.721 210.803 439.094 188.633 439.094"/>
        <rect class="cls-6" x="37.4144" y="475.7214" width="170.2472" height="55.1035"/>
        <polygon class="cls-4" points="122.539 448.421 94.333 475.721 102.536 475.721 102.536 530.825 142.543 530.825 142.543 475.721 150.745 475.721 122.539 448.421"/>
        <path class="cls-5" d="M122.5391,485.9594c-10.7743,0-10.7743,9.1126-10.7743,9.1126v35.7529h21.5488V495.072S133.3136,485.9594,122.5391,485.9594Z"/>
        <g>
          <rect class="cls-5" x="176.935" y="492.6369" width="10.5082" height="9.9322"/>
          <rect class="cls-5" x="163.0749" y="492.6369" width="10.5089" height="9.9322"/>
          <rect class="cls-5" x="163.0749" y="505.9218" width="10.5089" height="9.9329"/>
          <rect class="cls-5" x="176.935" y="505.9218" width="10.5082" height="9.9329"/>
        </g>
        <g>
          <rect class="cls-5" x="70.4406" y="492.6369" width="10.5089" height="9.9322"/>
          <rect class="cls-5" x="56.5812" y="492.6369" width="10.5082" height="9.9322"/>
          <rect class="cls-5" x="56.5812" y="505.9218" width="10.5082" height="9.9329"/>
          <rect class="cls-5" x="70.4406" y="505.9218" width="10.5089" height="9.9329"/>
        </g>
        <polygon class="cls-4" points="244.621 550.752 0 550.752 11.431 530.825 233.191 530.825 244.621 550.752"/>
      </g>
      <rect class="cls-7" x="67.8818" y="84.3632" width="18.0686" height="14.5494"/>
      <rect class="cls-7" x="159.1279" y="84.3632" width="16.7731" height="14.5494"/>
      <path class="cls-8" d="M233.1906,530.8249h-25.529V475.7214h3.141V439.0938H197.2183l-5.7798-106.183-6.2806-115.3949-5.8267-107.0514h11.6953V98.9126H179.3312V84.3632h8.9543V81.02H159.1279V63.12734h-8.3251V25.3294h8.3251L122.5391,0l-.2281.1577V550.7524H244.6212ZM175.901,98.9126H159.1279V84.3632H175.901Z"/>
      <path class="cls-4" d="M123.03508,254.95185c-10.7743,0-10.7743,9.1135-10.7743,9.1135v35.7512h21.5488v-35.7512S133.80958,254.95185,123.03508,254.95185Z"/>
    </g>
  </g>
</svg>
