<svg xmlns="http://www.w3.org/2000/svg" viewBox="0 0 959.95479 324.95631">
  <defs>
    <style>
      .cls-1 {
        fill: #67c1ca;
      }

      .cls-2 {
        fill: #8dd7e5;
      }

      .cls-3 {
        fill: #00a99d;
      }

      .cls-4 {
        fill: #21f4df;
      }

      .cls-5 {
        fill: #45abb9;
      }

      .cls-6 {
        fill: #fff;
      }

      .cls-7 {
        fill: #f0d1a8;
      }

      .cls-8 {
        fill: #ee7633;
      }

      .cls-9 {
        fill: #f53d4d;
      }

      .cls-10 {
        fill: #f8803d;
      }

      .cls-11 {
        fill: #a81a2b;
      }

      .cls-12 {
        fill: #ef8456;
      }

      .cls-13 {
        fill: #517a93;
      }

      .cls-14 {
        fill: #396785;
      }

      .cls-15 {
        fill: #532e4e;
      }

      .cls-16 {
        fill: #713657;
      }

      .cls-17 {
        fill: #f49e79;
      }

      .cls-18 {
        fill: #20132e;
      }

      .cls-19 {
        fill: #a3394b;
      }

      .cls-20 {
        fill: #ca554f;
      }

      .cls-21 {
        fill: #becde2;
      }

      .cls-22 {
        fill: #d35d19;
      }

      .cls-23 {
        fill: #333649;
      }

      .cls-24 {
        fill: #3f4b57;
      }
    </style>
  </defs>
  <g id="Layer_2" data-name="Layer 2">
    <g id="Layer_1-2" data-name="Layer 1">
      <g>
        <path class="cls-1" d="M953.51913,267.65347c8.36169-3.05078,6.28912-26.70068,6-30-1.23779-14.12463-7.4784-36.56653-17-37-8.42005-.3833-18.68366,16.47681-18,32C925.41439,252.9805,945.06869,270.7366,953.51913,267.65347Z"/>
        <g>
          <g>
            <path class="cls-1" d="M929.519,266.71963c4.3153-.84656,12.71582-4.55151,19-12.606,31.17932-39.96241-40.70392-140.09839-48.99988-151.46021-30.72235-42.07642-66.78491-91.46643-128-101-60.18442-9.373-121.5499,23.3822-120,41,1.57446,17.89722,66.99161,7.84241,85,43,20.57892,40.1759-30.17069,121.00305-97.99079,157.05957-62.93685,33.46033-117.18457,15.88916-117.99993,23.79712C518.90644,282.24112,846.1108,283.08279,929.519,266.71963Z"/>
            <path class="cls-2" d="M654.51913,253.65347c-.55591-5.15222,5.10534-6.52966,39-39,16.66717-15.9668,25.00079-23.95019,30-30,10.69076-12.93738,42.56149-51.50549,31-88-7.10752-22.4353-27.91367-35.51489-34-39-21.50125-12.31189-41.49234-9.21191-42.34357-15.75244-.74124-5.69544,13.57959-14.48523,28.34357-16.24756,5.59039-.66736,22.37539-1.65564,59,26,15.953,12.04639,38.34485,29.26367,59,60a225.25043,225.25043,0,0,1,31.65643,70.53345,217.26924,217.26924,0,0,1,6.34357,55.46655,42.548,42.548,0,0,1-5,16C825.97128,310.24209,657.48483,281.13943,654.51913,253.65347Z"/>
          </g>
          <path class="cls-1" d="M477.17881,315.698c-145.49546,10.86157-270.07313,21.4215-427-26-13.14306-3.97168-23.8846-7.55677-31-10-7.897-4.55616-20.85126-13.98548-19-20,1.62365-5.275,13.98611-5.8125,18.29788-6,37.09044-1.6128,699.86783-.44495,931.70212,0,2.8861,2.15478,6.14892,5.3258,6,9C955.20724,286.66494,810.73623,290.79727,477.17881,315.698Z"/>
          <path class="cls-3" d="M788.55881,253.69807h-4.36C784.52878,252.908,785.97879,253.028,788.55881,253.69807Z"/>
          <polygon class="cls-4" points="784.199 253.698 784.189 253.708 784.179 253.698 784.199 253.698"/>
          <path class="cls-1" d="M30.525,257.77015c-.16087-3.40265,9.177-11.69739,18.9688-13.04547,11.98334-1.64991,15.82155,8.31933,30.02388,9.9281,17.158,1.94354,20.06114-11.64344,38.97352-11.09345,16.78723.48822,20.98494,11.3819,34.01908,7.91852,10.32989-2.74475,10.55748-10.34808,20.97119-12.05023,9.35507-1.52911,12.68527,4.03259,26.01669,6.93768,13.27161,2.892,15.00619-1.52264,32.9975-1.079,22.21859.54785,21.892,7.338,41.01666,6.90173,16.72726-.38159,19.16653-5.626,34.99033-4.08386,13.45105,1.31092,13.21,5.24872,25.01428,5.94013,14.9176.87372,18.07559-5.25275,37.98074-8.091,12.91174-1.84112,23.07367-.90179,31.99991-.07666,24.39218,2.2547,25.02011,7.68763,39.01425,5.90656,15.3421-1.9527,18.88727-9.02991,29.98554-6.0719,7.45306,1.98651,10.77111,6.48865,19.01434,5.95447,6.155-.39881,6.31995-3.03949,12.99036-4.03113,9.74646-1.44891,12.99536,3.65338,23.00952,3.94488,9.44574.275,10.9303-4.1372,20.98559-6.05029,13.621-2.59143,18.15912,4.12323,33.01429,5.921,18.503,2.2392,19.3446-7.2243,46.97589-10.11255,7.43371-.777,23.36236-2.29626,42.00708,2.89936,16.91461,4.7135,15.58728,9.24719,27.02624,10.9353,22.81079,3.36633,29.63977-14.43323,51.97113-12.12457,18.35,1.89709,18.20911,14.3778,36.03583,14.91369,19.15839.57593,22.93988-13.73035,42.97113-12.103,10.50818.85375,10.96948,4.91271,30.019,7.9281,10.49951,1.662,16.31586,2.5827,24.00232.9425,11.699-2.49634,14.25373-8.0495,22.98078-8.055,9.9815-.00635,20.07409,7.24926,20.02392,9.952C925.05621,281.87922,32.06639,290.375,30.525,257.77015Z"/>
          <g>
            <path class="cls-5" d="M775.74776,182.829c.82481,5.82256,5.31722,11.20825,4.0132,16.94277-.98456,4.33266-4.95862,7.1983-8.398,10.01176-3.44267,2.81671-6.8886,6.72882-6.17137,11.11693.34556,2.11579,1.64962,4.02621,1.72133,6.16809.09781,2.86239-1.98213,5.28136-3.93492,7.37434-4.48264,4.80542-9.06961,9.69229-14.83672,12.84154-3.90886,2.13208-8.31652,3.44266-11.75917,6.26917a19.92771,19.92771,0,0,0-5.2129,6.82989A66.85216,66.85216,0,0,1,667.744,236.77387a23.59877,23.59877,0,0,0,3.5633-7.5015,72.33213,72.33213,0,0,0,2.73847-17.184c.34884-9.38583-.73352-20.01047,5.62365-26.9284a5.12916,5.12916,0,0,1,2.331-1.62678c1.366-.36188,2.77108.251,4.15335.53465,5.68237,1.16387,11.15607-3.5307,13.27513-8.92616,2.11582-5.39545,1.855-11.381,2.28531-17.16115a6.99933,6.99933,0,0,1,1.0563-3.76541c2.03756-2.70264,6.24308-1.43772,9.59774-1.87456,5.36284-.69767,8.78593-6.19745,10.06066-11.456,1.02041-4.20552,1.19645-8.64251,2.37334-12.773a66.7833,66.7833,0,0,1,55.839,39.67211C777.3941,172.4032,774.97838,177.39768,775.74776,182.829Z"/>
            <g>
              <path class="cls-2" d="M768.41986,141.91136c2.486-1.26943,5.38441-1.94315,7.31548-3.95872,1.931-2.01561,1.93023-6.14939-.75075-6.92659-2.41152-.699-4.43331,1.74192-6.16209,3.56278-1.72874,1.82077-5.28052,2.95256-6.31506.66481-1.105-2.44388,2.43216-4.27108,3.72849-6.61914,1.37058-2.4824-.166-5.84182-2.69179-7.13092s-5.62268-.8917-8.23435.21289a17.30438,17.30438,0,0,0-10.07405,17.93425c.45183,3.05024,1.74223,5.98389,1.71694,9.06733a11.00524,11.00524,0,0,1-6.58829,9.81831c-2.46373,1.03288-5.93054.74147-7.02795-1.69422-.69124-1.5341-.17858-3.30486-.07054-4.984s-.56806-3.75657-2.2327-4.00229a3.26416,3.26416,0,0,0-1.81348.36841c-2.8809,1.33123-4.71939,4.31875-5.453,7.40652a31.65558,31.65558,0,0,0-.30478,9.47776q.31052,4.54022.6211,9.08049c.14414,2.10711.21644,4.44855-1.143,6.06488a4.329,4.329,0,0,1-6.652-.459c-.65025-1.03367-.98446-2.48165-2.15307-2.83633a2.22653,2.22653,0,0,0-1.552.181c-2.2821,1.04948-2.84005,4.18525-2.03178,6.56348s2.57644,4.28277,3.934,6.39615c1.35763,2.11338,2.3258,4.80341,1.32532,7.10732a5.43434,5.43434,0,0,1-7.13647,2.41406,6.77734,6.77734,0,0,1-3.43722-7.06272c.28874-1.82244,1.22032-3.76708.36346-5.40115-.94351-1.79919-3.65543-1.96219-5.32984-.8117-1.6744,1.15055-2.52682,3.14826-3.17864,5.07243a51.60583,51.60583,0,0,0-2.62614,13.349c-.15651,2.52715-.20229,5.28034-1.80733,7.2387-1.605,1.95829-5.45808,2.05709-6.17244-.37205-.50822-1.72835.82641-3.39389,1.385-5.10665.55854-1.71286-.78224-4.31947-2.36713-3.46273a2.81282,2.81282,0,0,0-1.05924,2.36395c-.407,4.4896-.46324,9.02522-1.32,13.45108-1.442,7.45014-5.08278,14.27027-7.46166,21.47617-2.379,7.20584-3.38616,15.471.28819,22.1106l1.86871,1.49218a73.6028,73.6028,0,0,0,35.55766-5.51994,146.52985,146.52985,0,0,0,14.55647-7.51987,58.09841,58.09841,0,0,0,9.515-6.2278c3.42757-2.94858,6.11232-6.6474,8.75907-10.31309,4.17789-5.78611,8.376-11.63618,11.23359-18.17588,2.8577-6.53964,4.30945-13.90805,2.75121-20.87263-.54716-2.44589-1.44786-5.04727-.50923-7.37125.93874-2.32385,4.888-3.23308,5.7586-.88279.48456,1.3081-.28572,2.70242-.8036,3.99773s-.615,3.10993.62212,3.75447c1.20752.629,2.62465-.4302,3.36065-1.57565,1.97533-3.07423,1.92566-7.09617.81665-10.5779s-3.15686-6.57213-5.049-9.69816a10.15469,10.15469,0,0,1-1.87839-5.02106c-.01345-2.49863,1.7446-4.67708,3.74271-6.17736,1.99818-1.50025,4.313-2.55915,6.21477-4.17993,1.90176-1.62068,3.39858-4.06865,2.92511-6.52211-.47347-2.45334-3.68058-4.23776-5.64-2.68728-1.69468,1.3409-1.64763,4.25838-3.53953,5.30266-1.81274,1.0006-4.20664-.70178-4.53263-2.74648s.81325-4.05019,2.20964-5.579A16.01735,16.01735,0,0,1,768.41986,141.91136Z"/>
              <path class="cls-6" d="M755.08441,196.142c-.80326-.6981-1.82563-1.1129-2.60626-1.83607-2.11919-1.963-1.76223-5.44791-.58033-8.08366s3.02746-5.04242,3.4732-7.89644a8.57787,8.57787,0,0,0-1.5358-6.31494c-1.872-2.5565-5.32637-4.47059-5.21719-7.63734.03589-1.03942.48794-2.03817.46784-3.07806s-.84963-2.21205-1.86432-1.98367a1.856,1.856,0,0,0-.76444.42249c-2.0119,1.692-1.981,4.83089-1.16329,7.32934.81773,2.49838,2.24732,4.835,2.49909,7.45177s-1.31855,5.72346-3.94543,5.82379c-2.876.1098-4.58048-3.23008-4.95015-6.08428a2.071,2.071,0,0,0-.41242-1.20678,1.30452,1.30452,0,0,0-1.76668.09416,2.95,2.95,0,0,0-.75167,1.77418c-.43582,3.1096.82441,6.1812,2.09344,9.05326,1.26907,2.87213,2.60367,5.89069,2.32414,9.01821-.27938,3.12752-2.83365,6.294-5.96253,6.03075-2.83924-.23889-4.80715-3.13862-5.1919-5.96172a3.053,3.053,0,0,0-.406-1.42854c-.78806-1.07708-2.69139-.2647-3.04527,1.02211-.35378,1.28684.25718,2.617.79625,3.83793,3.13924,7.10937,4.00386,16.11165-.94073,22.10744l-.10587,4.47819a2.58476,2.58476,0,0,0-.73965,3.45283,5.20712,5.20712,0,0,0,3.13844,2.20018c3.84633,1.18193,8.101.16154,11.58521-1.85119s6.33738-4.93624,9.12682-7.83622c2.6347-2.739,5.44075-5.97315,5.17781-9.76456-.10741-1.54881-.73386-3.01339-.99281-4.54415s-.04936-3.311,1.16091-4.28336c.63959-.51384,1.52214-.77412,1.93267-1.48446A2.39464,2.39464,0,0,0,755.08441,196.142Z"/>
              <path class="cls-6" d="M686.045,244.18012c2.03385-6.18342-2.11774-13.54642,1.07841-19.217.35177-.62407.90375-1.26467,1.61972-1.24069,1.23132.0413,1.47855,1.76421,1.294,2.9823s-.09561,2.91256,1.11915,3.118c1.02558.17338,1.74893-.98994,1.99833-1.99972.66113-2.67661.1931-5.50061.52166-8.238a14.2702,14.2702,0,0,1,2.43281-6.40413c.84385-1.216,2.72367-2.30054,3.6179-1.12106.90926,1.1993-.68292,2.77287-.70051,4.27779a2.1706,2.1706,0,0,0,3.46819,1.51571c1.16688-1.10567.68512-3.00137.56713-4.60452-.107-1.45343.31354-3.13126,1.61237-3.79227,1.49871-.76271,3.44146.34624,4.03873,1.91823a6.2232,6.2232,0,0,1-.58782,4.8661c-.74536,1.50743-1.78352,2.85967-2.47748,4.39146-2.80644,6.19454.50466,13.91-2.40271,20.0578-2.46076,5.20343-8.47259,7.516-13.92777,9.35242"/>
              <path class="cls-7" d="M672.96119,282.27s-6.768-1.24653-2.10275-12.67638c0,0,16.09846-44.70612,70.9151-70.365,0,0,5.13175-2.56589,7.69765-1.63283,0,0,3.7322,1.16628,1.16631,7.9309,0,0-28.22474,59.94839-58.08231,72.77782C692.55519,278.30457,681.3586,284.36938,672.96119,282.27Z"/>
              <path class="cls-8" d="M749.47248,203.42647s-28.22471,59.9484-58.08227,72.77782c0,0-11.1966,6.06482-19.594,3.96547,0,0-5.5983-.93306-.93306-12.36291,0,0,9.15323-27.60889,39.44934-51.90551a149.555,149.555,0,0,1,30.29607-18.77294s4.06343-2.02936,6.76462-1.81944a3.45147,3.45147,0,0,1,.93306.18661S752.03838,196.66189,749.47248,203.42647Z"/>
              <path class="cls-9" d="M670.78076,279.77929a.23328.23328,0,0,1-.17221-.39044L742.45331,200.702a.23316.23316,0,1,1,.34445.31433L670.953,279.70321A.23216.23216,0,0,1,670.78076,279.77929Z"/>
              <path class="cls-10" d="M747.37314,195.309l-14.93347,37.8958L711.9126,254.66488l-19.36075,3.26566,17.7606-42.0292a149.555,149.555,0,0,1,30.29607-18.77294S744.672,195.099,747.37314,195.309Z"/>
              <path class="cls-11" d="M694.03319,254.425l48.76457-53.40858a.23316.23316,0,1,0-.34445-.31433l-47.876,52.43548Z"/>
              <path class="cls-12" d="M728.79018,234.064,717.119,224.93361a1.05331,1.05331,0,0,1-.34636-1.24653c.3684-.80406,1.44143-.51167,1.44143-.51167L722.87928,225.2s-1.003-1.4695-2.35131-3.48492c-.34988-.52713-.72774-1.09163-1.11961-1.67947-2.04342-3.08372-4.418-6.73664-5.393-8.52335-.1213-.21932-.22392-.4339-.31252-.63919-1.27827-2.97639.62512-4.334.62512-4.334l9.797-7.62293,2.33261,11.50911-.933,1.39957s1.10564,3.20038,2.47254,7.10983c.88171,2.52392,1.87075,5.34637,2.73853,7.79564.72308,2.0527,1.3669,3.8488,1.78677,5.00112C734.22987,236.39663,728.79018,234.064,728.79018,234.064Z"/>
              <path class="cls-13" d="M748.48347,210.56431a5.42216,5.42216,0,0,1-.41056.48518c-1.0777,1.56285-3.47558,2.89711-6.256,3.98881a78.92391,78.92391,0,0,1-13.96313,3.62952c-5.28569-5.13175-3.4196-12.4422-3.4196-12.4422a12.2047,12.2047,0,0,1-.43387-1.17565,8.47141,8.47141,0,0,1,.12129-6.1301l9.37246-5.99019.00466.00467.71381.37789,5.89214,3.11169,5.58435,2.94845,1.52554.80707,3.49892,1.84745A12.39072,12.39072,0,0,1,748.48347,210.56431Z"/>
              <path class="cls-14" d="M737.95871,198.682l-13.52456,7.54367a12.2047,12.2047,0,0,1-.43387-1.17565,8.47141,8.47141,0,0,1,.12129-6.1301l9.37246-5.99019.00466.00467.71381.37789Z"/>
              <path class="cls-14" d="M745.689,199.37238l-5.58435-2.94845,1.43228,3.42434.03734,2.13665.24262,13.05338c2.78045-1.0917,5.17833-2.426,6.256-3.98881a5.42216,5.42216,0,0,0,.41056-.48518l-1.26894-10.38486Z"/>
              <path class="cls-15" d="M730.73559,226.73028c-1.84745-.89572-6.97457-3.387-10.20762-5.01516-.34988-.52713-.72774-1.09163-1.11961-1.67947,2.23468-.27524,6.18614-.78846,8.5887-1.101C728.87877,221.45856,729.86781,224.281,730.73559,226.73028Z"/>
              <path class="cls-12" d="M737.69145,167.03847s-10.38019-9.33047-34.28955-7.581a34.96487,34.96487,0,0,0-14.9288,4.89849l-6.25918,2.33264a17.12939,17.12939,0,0,0-4.19872,3.65443s-2.13824,2.76026-1.74949,4.39313c0,0-.03886,1.04965.97194.97191,0,0,.97192.38877,1.28295-1.78834a13.883,13.883,0,0,1,3.26566-4.27647s-1.98272,2.29375-1.7106,4.15984c0,0,.1944,1.28294,1.2052.69977,0,0,.5054.11663,1.08854-1.67169a1.91927,1.91927,0,0,1,2.06049-1.32183s4.00435-.66092,5.87044-3.61558c0,0,20.44933-7.69764,40.04336,4.432Z"/>
              <path class="cls-16" d="M682.36946,172.8312c-.58317,1.78829-1.08854,1.67166-1.08854,1.67166-1.01083.58317-1.20526-.69977-1.20526-.69977-.27209-1.86609,1.71063-4.1599,1.71063-4.1599a12.07615,12.07615,0,0,0-2.78808,3.40167,7.26222,7.26222,0,0,0-.03054,2.9159,1.03617,1.03617,0,0,0,1.22465.58315s.68063.10992.75432-1.68192c-.00921.251.01061,1.12418.76188.92381,0,0,.69977-.05829,1.04965-1.92441l.9751-2.3199A2.0136,2.0136,0,0,0,682.36946,172.8312Z"/>
              <path class="cls-17" d="M752.38826,198.41135c-.5365,3.47561-2.77111,4.52063-4.81454,4.71188a10.25572,10.25572,0,0,1-3.69953-.39653,10.4637,10.4637,0,0,1-2.12736-.66246c-.05594-.02331-.11665-.05131-.17257-.07932-5.52368-2.47724-8.08023-9.05524-8.08023-9.05524.6998-1.63283.58317-5.59829.58317-5.59829a16.045,16.045,0,0,1-4.67927-6.23742,9.15588,9.15588,0,0,1-.68577-4.84255l-1.045-1.1103-.82107-.87242,1.16629-8.6307a14.55033,14.55033,0,0,1,2.80848-.21461c8.626.14463,14.91947,7.679,14.91947,7.679C753.90446,182.54952,752.38826,198.41135,752.38826,198.41135Z"/>
              <path class="cls-12" d="M735.1821,167.31365A6.32384,6.32384,0,0,1,730.649,165.581a.23322.23322,0,0,1,.34377-.31526,6.02446,6.02446,0,0,0,4.47046,1.57586.24277.24277,0,0,1,.24192.22417.23346.23346,0,0,1-.22414.24238C735.38005,167.31182,735.28005,167.31365,735.1821,167.31365Z"/>
              <path class="cls-18" d="M727.66714,175.14112l-.82107-.87242,1.16629-8.6307a14.55033,14.55033,0,0,1,2.80848-.21461C731.16609,171.101,728.87083,174.01211,727.66714,175.14112Z"/>
              <path class="cls-12" d="M745.11518,202.56806l-3.36835-.50382c-5.64027-2.41659-8.2528-9.13456-8.2528-9.13456.6998-1.63283.58317-5.59829.58317-5.59829a16.045,16.045,0,0,1-4.67927-6.23742c1.52554,2.18333,5.30906,6.508,11.35993,6.39139C748.84736,187.33139,745.11518,202.56806,745.11518,202.56806Z"/>
              <path class="cls-15" d="M747.57372,203.12323a10.25572,10.25572,0,0,1-3.69953-.39653,10.4637,10.4637,0,0,1-2.12736-.66246c-.05594-.02331-.11665-.05131-.17257-.07932l-.03734-2.13665-1.43228-3.42434-4.10537-9.825-2.39328-5.72426,7.01654,6.61068,5.08507,4.79117.61118.57386.89575,7.32906Z"/>
              <polygon class="cls-15" points="722.881 225.199 725.834 229.244 721.07 224.415 722.881 225.199"/>
              <path class="cls-17" d="M734.8923,174.9694s-3.38232,2.33261-.81643,7.9309l8.864,15.39532a6.34046,6.34046,0,0,1,.93306,3.96546l-.11663,19.24412a4.33111,4.33111,0,0,1-1.57453,2.50756s-3.61555,4.19873-5.42334,5.94822c0,0-.7581.8164-.34989,1.34124a5.81839,5.81839,0,0,0,4.432-2.39093,9.5533,9.5533,0,0,0-.87473,5.88988s.0583,2.79912,1.04969,3.55725c0,0,1.22462,1.108.64144-2.56589,0,0,.64148,3.67388,1.86612,4.14039,0,0,1.80779,1.28295.99136-2.2743a18.50924,18.50924,0,0,1-.29159-4.60694s.23326,3.84884,1.74949,4.8402a1.08357,1.08357,0,0,0,1.34125-.17493s.40821-.29159-.29159-3.38232c0,0,.58318,2.09937,1.57453,2.2743,0,0,1.39958.52485.69978-1.98272,0,0-1.16629-4.31535-.34989-6.53135a14.33989,14.33989,0,0,0,.99136-6.58966l1.08857-21.65449a18.01654,18.01654,0,0,0-1.0108-4.89853s-5.98707-16.09508-8.3197-18.50546C741.69577,176.44672,738.66336,172.17026,734.8923,174.9694Z"/>
              <path class="cls-12" d="M750.95623,201.48153l-.01184-.00043a.23322.23322,0,0,1-.22142-.24467l.07017-1.39775a17.96731,17.96731,0,0,0-.99365-4.79874c-.06241-.1672-5.99921-16.08325-8.27148-18.4309a6.10435,6.10435,0,0,0-3.45542-2.31211,3.965,3.965,0,0,0-3.04128.8597c-.13712.09614-3.19073,2.30664-.7433,7.64661l1.67225,2.90258a.23308.23308,0,1,1-.40411.23236l-1.68229-2.92171c-2.62715-5.72905.85059-8.21476.88614-8.2389a4.39588,4.39588,0,0,1,3.38869-.94079,6.43355,6.43355,0,0,1,3.73721,2.47523c2.31712,2.39,8.10311,17.89969,8.34824,18.55847a18.00215,18.00215,0,0,1,1.02483,4.96731l-.06992,1.42232A.23348.23348,0,0,1,750.95623,201.48153Z"/>
              <path class="cls-19" d="M747.06072,234.83987a.23365.23365,0,0,1-.21914-.1531,10.26732,10.26732,0,0,1-.39319-5.97733.23323.23323,0,0,1,.44763.13122,9.99074,9.99074,0,0,0,.38383,5.68577.23338.23338,0,0,1-.139.29932A.23573.23573,0,0,1,747.06072,234.83987Z"/>
              <path class="cls-19" d="M744.22262,233.28494a.233.233,0,0,1-.22986-.195,10.714,10.714,0,0,1,.19749-3.66933.23568.23568,0,0,1,.28133-.17267.23329.23329,0,0,1,.17245.2811,10.42933,10.42933,0,0,0-.19112,3.48436.23307.23307,0,0,1-.19181.26835A.22407.22407,0,0,1,744.22262,233.28494Z"/>
              <path class="cls-19" d="M741.77336,237.095a.233.233,0,0,1-.23008-.19638,18.85249,18.85249,0,0,1,.31663-7.33087.23319.23319,0,0,1,.44923.12528,18.74821,18.74821,0,0,0-.30525,7.13181.23352.23352,0,0,1-.19341.26741A.25794.25794,0,0,1,741.77336,237.095Z"/>
              <path class="cls-17" d="M730.46033,166.516a1.785,1.785,0,0,1-1.63285,1.74475c.46653,4.02612-1.5722,5.8316-1.5722,5.8316-2.62653,3.79285-7.40842.23322-7.40842.23322a7.10989,7.10989,0,0,1-1.55349-1.70282c-2.174-3.24231-2.29529-8.03351-2.29529-8.03351,3.149,2.79913,8.57-.76044,8.57-.76044.23324,1.75409,2.39325,1.11035,2.39325,1.11035a4.30105,4.30105,0,0,0,.20993,1.25489,2.15745,2.15745,0,0,0,.95639,1.311l-.00934-.238-.0513-1.16163c.06064-1.86608,1.11032-1.68884,1.11032-1.68884C730.81021,164.18336,730.46033,166.516,730.46033,166.516Z"/>
              <path class="cls-8" d="M730.46628,166.46845c.03738-.31726.2146-2.26733-1.2876-2.05273,0,0-1.04968-.17731-1.11035,1.68878l.06067,1.3996s-1.11032-.52253-1.16629-2.56586c0,0-2.16.6438-2.39328-1.10565a.01451.01451,0,0,0-.00934.00464h-.00461l-.02337.014c-.06531.04669-.21924.14-.44318.26593l-.17734.098c-1.53488.83979-5.4303,2.5799-7.91223.37323,0,0,0,.05134.00467.13532-.7085-.87024-.80045-1.73535-.47553-2.02557.2797-.24982.84842-.056,1,0-.57342-1.71552-.35293-2.55329,0-3,.00007-.00007.058-.07337,1-1h0a1.62963,1.62963,0,1,1,3.25272.17535,5.59446,5.59446,0,0,1,6.12082-.989,3.61855,3.61855,0,0,1,2.05557,1.64282,3.36994,3.36994,0,0,1,.22888.54913,3.12942,3.12942,0,0,1,.1088,1.307l.69983,2.03869A3.35952,3.35952,0,0,1,730.46628,166.46845Z"/>
              <path class="cls-18" d="M718.9722,168.49635a.2317.2317,0,0,1-.17539-.07972c-.46676-.53261-1.29593-1.22873-1.67521-1.09844a.2334.2334,0,0,1-.1476-.44284c.80638-.267,1.95218.98088,2.17384,1.2342a.23341.23341,0,0,1-.17564.3868Z"/>
              <path class="cls-18" d="M722.00483,168.20476a.22448.22448,0,0,1-.05966-.00773.233.233,0,0,1-.16606-.28475,3.11408,3.11408,0,0,1,1.57908-1.84059.23329.23329,0,0,1,.20865.41733,2.66492,2.66492,0,0,0-1.3367,1.54171A.23318.23318,0,0,1,722.00483,168.20476Z"/>
              <path class="cls-18" d="M723.11256,169.167a.554.554,0,1,1-.554-.554A.554.554,0,0,1,723.11256,169.167Z"/>
              <path class="cls-18" d="M718.85551,169.10867a.554.554,0,1,1-.554-.554A.554.554,0,0,1,718.85551,169.10867Z"/>
              <path class="cls-18" d="M728.88563,167.68a.23345.23345,0,0,1-.22552-.17407,3.4,3.4,0,0,1,.16083-2.36178,1.08359,1.08359,0,0,1,.872-.43826.23862.23862,0,0,1,.24237.22414.23346.23346,0,0,1-.22367.24237.63011.63011,0,0,0-.51573.24921,2.89872,2.89872,0,0,0-.08429,1.96587.233.233,0,0,1-.16674.28476A.22172.22172,0,0,1,728.88563,167.68Z"/>
              <path class="cls-18" d="M728.82777,167.1551l-.01184-.00046a.23317.23317,0,0,1-.22142-.24467,1.19942,1.19942,0,0,1,.43962-1.01.80357.80357,0,0,1,.69366-.07064.23334.23334,0,0,1-.16517.43647.34205.34205,0,0,0-.277.02733.82658.82658,0,0,0-.22507.64057A.23346.23346,0,0,1,728.82777,167.1551Z"/>
              <path class="cls-20" d="M720.08013,169.13785s-.34989,3.55725.23329,4.02376l1.22461-.99135"/>
              <path class="cls-18" d="M720.31438,173.46093l-.14671-.11709c-.63282-.50618-.40457-3.365-.31959-4.2288a.23647.23647,0,0,1,.25489-.20958.23367.23367,0,0,1,.20936.25514,12.13915,12.13915,0,0,0,.05058,3.66068l1.02848-.83238a.23324.23324,0,0,1,.29341.36265Z"/>
              <path class="cls-17" d="M724.23962,207.33988c-.0403-.11749-.07931-.23029-.11622-.33576L710.59417,214.624s-3.42117,1.55506-3.57672,8.39745l-1.86609,24.72582s.15552,2.02154-3.73221,4.35417l-10.57447,6.53136s-2.02166,2.48818,2.17706,1.86609l18.50549-4.82073s1.86609-.46651-.15551-4.19872a10.08422,10.08422,0,0,1,1.08857-9.175s5.75375-8.08638,5.44275-15.86183c0,0,.311-5.13175,2.64363-6.06481l7.3089-1.71051C723.82408,214.75428,723.95169,209.579,724.23962,207.33988Z"/>
              <path class="cls-12" d="M729.87381,177.805a.233.233,0,0,1-.17518-.07926l-1.16177-1.32032a.23323.23323,0,0,1,.35035-.308l1.16177,1.32029a.23341.23341,0,0,1-.17517.38726Z"/>
              <path class="cls-21" d="M688.58639,198.79858a1.98274,1.98274,0,1,1-1.98275-1.98275A1.98273,1.98273,0,0,1,688.58639,198.79858Z"/>
              <path class="cls-6" d="M708.29705,203.8137a1.8661,1.8661,0,1,1-1.86611-1.86609A1.86613,1.86613,0,0,1,708.29705,203.8137Z"/>
              <circle class="cls-21" cx="733.72262" cy="143.16553" r="3.26567"/>
              <path class="cls-6" d="M753.78317,155.52844a1.86609,1.86609,0,1,1-1.86609-1.86612A1.86609,1.86609,0,0,1,753.78317,155.52844Z"/>
              <circle class="cls-21" cx="775.82646" cy="144.33185" r="2.79915"/>
              <path class="cls-22" d="M724.55548,163.83723l-.02337.014-.44318.26593-.17734.098c-1.53488.83979-5.4303,2.5799-7.91223.37323,0,0,0,.05134.00467.13532a2.82232,2.82232,0,0,1-.47553-3.02557,2.951,2.951,0,0,1,4-1q-2.16009,1.24666-2,2Q717.79647,163.958,724.55548,163.83723Z"/>
              <path class="cls-21" d="M753.89979,227.83972s10.73008-12.82943,9.56377-25.19234C763.46356,202.64738,771.62774,214.07723,753.89979,227.83972Z"/>
              <path class="cls-21" d="M671.55824,252.099a33.87767,33.87767,0,0,1,3.73218-17.49466A18.2568,18.2568,0,0,0,671.55824,252.099Z"/>
            </g>
            <path class="cls-23" d="M728.5285,164.69807c-.09372-.1341-1.65243,1.07849-4,2a10.72063,10.72063,0,0,1-4,1c-2.89724.02642-4.20346-1.6615-5-1-.81054.67315-.48049,3.27014,1,4a2.13015,2.13015,0,0,0,2,0c.44956-.31653.45154-.78144,1-1a1.458,1.458,0,0,1,1,0c.57557.22247.5517.70068,1,1a2.36732,2.36732,0,0,0,3-1c.15516-.40192-.07138-.49219,0-1,.13163-.93634.98945-1.25257,3-3C728.05551,165.24006,728.58426,164.77784,728.5285,164.69807Z"/>
            <path class="cls-22" d="M715.5285,164.69807q3.5.5,7,1"/>
            <path class="cls-24" d="M728.5285,161.69807a5.17166,5.17166,0,0,0,3-2c.59159-.69989,1.11445-1.31855,1-2-.21365-1.2721-2.50564-1.914-4-2-1.84112-.106-4.67074.50555-5,2C723.155,159.3932,726.03684,162.05091,728.5285,161.69807Z"/>
            <path class="cls-23" d="M730.5285,160.69807c.744-1.965-.36013-4.61518-2-6-3.55145-2.99915-10.62182-.91358-13,3a6.79449,6.79449,0,0,0-1,4c.19135,2.33032,1.72321,4.11706,2,4,.2771-.11719-.82656-2.09028,0-3a2.53919,2.53919,0,0,1,3,0c1.24555.87225.78446,2.42395,2,3a3.01968,3.01968,0,0,0,2,0,5.09252,5.09252,0,0,0,2-1C729.60516,161.52875,730.1286,161.75428,730.5285,160.69807Z"/>
          </g>
          <path class="cls-2" d="M7.5285,261.69807c-1.21067,8.16894,74.8731,28.42749,137,39,21.28962,3.623,82.85865,13.24206,251,9,77.89362-1.96515,137.14356-5.85773,154-7,221.29529-14.996,205.02454-35.00812,259-23,9.1753,2.04126,73.48005,16.821,122-8,2.61817-1.33936,13.87879-7.09992,13-10-1.86438-6.15265-55.95434,8.52954-111,15-62.29162,7.3222-72.648-2.1203-151-2-86.91455.13342-85.75579,11.7702-197,17-7.40338.348-7.06475.28033-162,0-171.69648-.31067-177.61953-.23749-193-8-11.5113-5.80976-54.91435-29.43067-106-26C8.40669,258.71357,7.61838,261.09162,7.5285,261.69807Z"/>
        </g>
      </g>
    </g>
  </g>
</svg>
