<?xml version="1.0" encoding="utf-8"?>
<!-- Generator: Adobe Illustrator 24.0.0, SVG Export Plug-In . SVG Version: 6.00 Build 0)  -->
<svg version="1.1" xmlns="http://www.w3.org/2000/svg" xmlns:xlink="http://www.w3.org/1999/xlink" x="0px" y="0px"
	 viewBox="0 0 4800 4800" style="enable-background:new 0 0 4800 4800;" xml:space="preserve">
<style type="text/css">
	.st0{fill:#EE7633;}
	.st1{fill:#F49E79;}
	.st2{fill:#5C5F7C;}
	.st3{fill:#EF8456;}
	.st4{fill:#517A93;}
	.st5{stroke:#F4971C;stroke-width:57;stroke-miterlimit:10;}
	.st6{fill:#333649;}
	.st7{fill:none;}
</style>
<g id="Слой_1">
</g>
<g id="Слой_2">
	<path class="st0" d="M2224.86,898.78c26.18,11.39,33.38,57.03,46.71,147.84c9.7,66.04,6.99,81.23,3.59,92.83
		c-12.95,44.24-51.94,91.34-82.64,85.95c-22.9-4.02-33.76-35.93-46.71-75.64c-21-64.35-59.42-182.14,2.05-233.17
		C2167.88,899.99,2200.96,888.38,2224.86,898.78z"/>
	<path class="st1" d="M2519.5,3085.43c14.61,13.9,12.14,50.52,7.18,123.77c-4.5,66.52-16.31,119.18-21.56,140.96
		c-14.28,59.3-21.62,63.13-28.74,103.14c-9.48,53.24-4.66,92.38,0,137.53c17.28,167.33,5.85,159.28,25.15,299.12
		c17.38,125.92,29.35,151.97,50.3,175.34c21.96,24.48,54.16,41.53,118.57,75.64c58.28,30.86,87.66,46.42,132.94,58.45
		c60.25,16.01,99.13,12.61,104.2,30.94c3.84,13.89-13.73,33-32.34,41.26c-27.37,12.15-49.35-2.55-97.01-13.75
		c-9.98-2.35-54.57-5-143.73-10.31c-92.39-5.5-98.81-4.93-107.79-3.44c-47.05,7.83-60.7,23.67-100.61,20.63
		c-12.84-0.98-57.22-4.36-71.86-30.94c-12.93-23.47,8.69-44.4,17.97-92.83c6.07-31.66,1.65-58.92-7.19-113.46
		c-4.59-28.32-13.5-73.7-39.52-151.28c-34.2-101.97-47.31-108.59-64.68-171.91c-13.99-50.99-15.64-83.71-21.56-161.59
		c-22.32-293.7-34.87-302.78-14.37-340.37C2286.97,3088.41,2473.27,3041.45,2519.5,3085.43z"/>
	<path class="st2" d="M2483.57,2638.47c53.03,6.1,75.57,211.96,75.46,288.8c-0.08,54.74-11.69,72.27-3.59,130.65
		c3.57,25.72,9.08,45.82-3.59,61.89c-5.17,6.56-16.35,16.22-77.62,21.46c-53.56,4.58-80.35,6.86-94.85-0.83
		c-50.75-26.93-36.18-136.96-28.75-189.1C2369.55,2818.54,2431.87,2632.52,2483.57,2638.47z"/>
	<path class="st3" d="M2095.51,2999.47c-4.85,7.49-3.15,7.69-35.93,158.15c-4.86,22.28-9.78,44.36-21.56,72.2
		c-16.47,38.93-36.35,65.55-46.71,79.08c-89.88,117.41-141.32,136.08-186.84,223.48c-28.96,55.61-44.55,117.95-50.3,140.96
		c-10.91,43.63-10.85,60.2-25.15,110.02c-12.03,41.9-23.87,71.24-39.52,110.02c-31.42,77.85-47.13,116.78-68.27,147.84
		c-36.99,54.33-61.96,64.01-71.86,110.02c-2.88,13.38-11.23,52.17,10.78,79.08c13.91,17.01,29.42,16.41,75.46,30.94
		c51.43,16.24,88.81,34.91,122.16,51.57c62.1,31.02,51.31,36.02,86.23,48.13c28.97,10.05,64.83,11.28,136.54,13.75
		c44.71,1.54,63.13,0.11,82.64-10.31c21.45-11.46,44.81-34.13,39.53-48.13c-5.77-15.3-40.19-5.61-89.83-20.63
		c-35.32-10.69-56.91-27.4-97.01-58.45c-43.38-33.58-68.93-53.36-89.83-89.39c-8.88-15.3-37.69-64.96-28.74-123.77
		c5.98-39.32,23.39-46.94,86.23-137.53c34.56-49.81,22.9-38.3,86.23-134.09c31.16-47.13,28.6-41.77,86.23-127.21
		c62.22-92.24,64.38-97.26,82.64-120.33c47.28-59.77,62.13-63.21,97.01-106.58c14.77-18.36,39.14-51.35,93.42-178.78
		c58.9-138.27,88.02-207.93,71.86-233.79C2355.06,2912.32,2146.6,2920.59,2095.51,2999.47z"/>
	<path class="st4" d="M2106.29,1046.62c14.43-47.94-53.63-71.43-50.3-137.52c2.12-42.06,31.69-72.56,64.68-106.58
		c47.43-48.92,99.15-68.95,118.57-75.64c40.16-13.82,72.21-24.86,107.79-13.75c9.73,3.04,21.87,8.41,93.42,85.95
		c44.26,47.97,49.13,56.23,46.71,65.33c-6.15,23.08-51.34,21.57-118.57,41.26c-50.81,14.88-127.63,37.37-176.06,92.83
		c-48.68,55.74-24.21,93.85-82.64,147.84c-33.6,31.05-81.52,55.25-93.42,44.69c-10.44-9.26,8.36-43.93,14.37-55.01
		C2061.99,1078.57,2096.49,1079.2,2106.29,1046.62z"/>
	<path class="st1" d="M2483.56,871.32c-4.44-2.03-12.42-4.4-43.06,3.3c-24.15,6.07-38.84,12.49-65.62,22.87
		c-31.7,12.29-28.22,9.94-55.24,20.63c-40.09,15.86-60.3,23.75-64.89,31.34c-14.17,23.45,12.51,44.38,4.26,81.68
		c-5.96,26.92-21.8,24.83-41.32,56.73c-33.6,54.89-6.37,89.64-39.52,171.91c-21.69,53.83-48.9,69.79-79.05,110.02
		c-26.07,34.78-56.75,90.91-68.27,312.87c-11.14,214.67-16.71,322.01,25.15,364.44c104.27,105.69,364.13,79.43,438.36-34.38
		c30.81-47.24,22.93-122.03,7.19-271.61c-6.5-61.76-10.69-101.51-28.75-154.72c-23.93-70.49-43.29-79.37-53.9-140.96
		c-3.15-18.3-0.9-59.19,3.59-140.96c2.08-37.87,4.5-66.81,25.15-79.08c14.4-8.55,23.8-0.75,39.52-10.31
		c16.83-10.24,22.23-29.89,32.34-68.76c10.35-39.8,6.4-47.19,17.96-61.89c14.74-18.72,30.07-18.04,32.34-30.94
		c2.92-16.67-21.36-25.23-39.52-51.57c-16.78-24.34-3.58-34.1-21.56-89.39C2499.63,884.58,2493.11,875.69,2483.56,871.32z"/>
	<path class="st4" d="M2048.8,2641.91c-22.1,61.92,11.88,133.85,7.19,271.61c-1.25,36.65,3.2,73.47,0,110.02
		c-2.73,31.19-6.48,46.49,3.59,61.89c14.32,21.88,43.48,23.92,86.23,30.94c45.13,7.41,82.79,17.55,158.1,37.82
		c96.73,26.04,118.14,45.34,143.72,30.94c25.78-14.51,27.61-47.35,35.93-99.71c11.09-69.81,37.63-136.73,50.3-206.29
		c58.45-320.83,65.89-330.31,50.3-350.69C2497.96,2415.71,2103.72,2488.02,2048.8,2641.91z"/>
	<path class="st0" d="M631.32,2430.47c-0.94-7.94-8.22-76.17,21.56-139.24c32.75-69.36,97.16-104.62,156.3-134.09
		c212.45-105.85,371.89-149.56,371.89-149.56c248.61-68.15,372.92-102.22,452.73-118.62c435.19-89.36,652.79-134.05,964.75-149.56
		c336.16-16.72,570.92,9.82,894.68,46.41c0,0,184.39,20.84,528.19,123.77c181.77,54.42,269.65,93.66,274.87,149.56
		c4.46,47.75-52.85,92.19-140.13,159.87c-88.31,68.48-166,107.42-188.64,118.61c-194.34,96.14-291.5,144.2-404.22,185.66
		c-101.62,37.37-257.55,88.57-533.58,144.4c-181.15,36.64-587.91,110.46-1131.83,123.77c-170.12,4.17-327.21-7.54-641.37-30.94
		c0,0-204.26-15.22-425.78-108.3c-56.36-23.68-140.21-64.22-177.86-144.4C636.86,2473.69,632.33,2439.03,631.32,2430.47z"/>
	<path class="st5" d="M631.32,2430.47c1221.66-123.77,2443.31-247.54,3664.97-371.32"/>
	<path class="st3" d="M2185.34,1393.87c-44.25,23.22-53.95,81.18-61.08,123.77c-1.84,11.01-8.4,54.46,3.59,110.02
		c12.69,58.78,32.8,69.33,43.12,123.77c8.49,44.8,2.57,78.25,0,99.7c-12.08,100.63,17.17,205.78,57.49,350.69
		c46.06,165.55,72.26,168.37,93.42,292.24c9.06,53.01,22.57,105.25,32.34,158.15c9.37,50.75,22.5,127.2,39.52,127.21
		c10.21,0.01,14.71-27.48,28.75-27.5c15.29-0.03,23.67,32.58,32.34,30.94c10.36-1.96,5.38-49.92,14.37-51.57
		c9.79-1.8,25.09,53.44,35.93,51.57c6.36-1.09,8.39-21.34,9.22-29.63c2.25-22.41-2.69-33.36,1.56-35.69
		c9.26-5.1,41.85,42.04,50.3,37.82c11.73-5.86-38.52-103.08-21.56-113.46c14.56-8.9,75.46,48.13,75.46,48.13
		c29.15,3.96,37.65,0.71,39.53-3.44c4.18-9.24-23.68-24.82-79.05-72.2c-21.98-18.81-38.96-34.64-71.86-65.32
		c-25.82-24.08-38.73-36.12-43.12-41.26c-33.72-39.52-35.15-85.12-39.52-130.65c-7.27-75.73-21.62-133-50.3-247.54
		c-15.3-61.09-39.59-80.37-39.52-130.65c0.05-40.56,11.69-43.67,21.56-106.58c9.79-62.4,0.25-71.53,7.18-158.15
		c5.25-65.59,10.8-61.39,14.37-116.9c5.46-84.72,8.18-127.09-14.37-161.59C2329.18,1400.97,2240.65,1364.85,2185.34,1393.87z"/>
	<path class="st6" d="M2252.87,972.42c-1.66-2.68,10.7-13.84,24.98-22.1c14.78-8.55,28.45-12.16,39.55-14.57
		c26.92-5.85,48.98-6.92,60.18-7.31c63.71-2.19,90.2,6.91,102.4-9.03c5.96-7.79,4.99-17.09,13.47-20.63
		c8.79-3.67,20.95,1.35,28.3,7.74c15.9,13.82,13.42,37.71,9.43,76.07c-3.48,33.51-9.25,37.36-12.13,38.68
		c-11.23,5.14-30.41-4.47-39.07-18.05c-10.81-16.93,0.01-31.76-9.43-39.97c-8.13-7.07-20.83-0.11-55.24,7.74
		c-37.32,8.51-60.12,13.45-84.89,6.45c-15.48-4.38-17.3-11.24-32.34-12.89C2273.36,961.83,2254.83,975.59,2252.87,972.42z"/>
	<path class="st6" d="M2283.25,958.95"/>
	<rect class="st7" width="4800" height="4800"/>
</g>
</svg>
